<svg width="59" height="66" viewBox="0 0 59 66" fill="none" xmlns="http://www.w3.org/2000/svg">
<path d="M16.032 46.684H17.196V55H16.032V46.684ZM22.9867 53.848C22.9067 53.656 22.7987 53.412 22.6627 53.116C22.5347 52.82 22.3947 52.5 22.2427 52.156C22.0907 51.812 21.9267 51.46 21.7507 51.1C21.5827 50.732 21.4227 50.388 21.2707 50.068C21.1187 49.74 20.9747 49.448 20.8387 49.192C20.7107 48.936 20.6067 48.74 20.5267 48.604C20.4387 49.548 20.3667 50.572 20.3107 51.676C20.2547 52.772 20.2067 53.88 20.1667 55H19.0267C19.0587 54.28 19.0947 53.556 19.1347 52.828C19.1747 52.092 19.2187 51.372 19.2667 50.668C19.3227 49.956 19.3787 49.264 19.4347 48.592C19.4987 47.92 19.5667 47.284 19.6387 46.684H20.6587C20.8747 47.036 21.1067 47.452 21.3547 47.932C21.6027 48.412 21.8507 48.916 22.0987 49.444C22.3467 49.964 22.5867 50.488 22.8187 51.016C23.0507 51.536 23.2627 52.012 23.4547 52.444C23.6467 52.012 23.8587 51.536 24.0907 51.016C24.3227 50.488 24.5627 49.964 24.8107 49.444C25.0587 48.916 25.3067 48.412 25.5547 47.932C25.8027 47.452 26.0347 47.036 26.2507 46.684H27.2707C27.5427 49.364 27.7467 52.136 27.8827 55H26.7427C26.7027 53.88 26.6547 52.772 26.5987 51.676C26.5427 50.572 26.4707 49.548 26.3827 48.604C26.3027 48.74 26.1947 48.936 26.0587 49.192C25.9307 49.448 25.7907 49.74 25.6387 50.068C25.4867 50.388 25.3227 50.732 25.1467 51.1C24.9787 51.46 24.8187 51.812 24.6667 52.156C24.5147 52.5 24.3707 52.82 24.2347 53.116C24.1067 53.412 24.0027 53.656 23.9227 53.848H22.9867ZM36.5358 50.836C36.5358 51.556 36.4238 52.184 36.1998 52.72C35.9758 53.248 35.6598 53.688 35.2518 54.04C34.8438 54.384 34.3558 54.644 33.7878 54.82C33.2198 54.988 32.5958 55.072 31.9158 55.072C31.5798 55.072 31.2078 55.056 30.7998 55.024C30.3998 55 30.0358 54.948 29.7078 54.868V46.804C30.0358 46.724 30.3998 46.672 30.7998 46.648C31.2078 46.616 31.5798 46.6 31.9158 46.6C32.5958 46.6 33.2198 46.688 33.7878 46.864C34.3558 47.032 34.8438 47.292 35.2518 47.644C35.6598 47.988 35.9758 48.428 36.1998 48.964C36.4238 49.492 36.5358 50.116 36.5358 50.836ZM32.0118 54.052C33.1158 54.052 33.9398 53.772 34.4838 53.212C35.0278 52.644 35.2998 51.852 35.2998 50.836C35.2998 49.82 35.0278 49.032 34.4838 48.472C33.9398 47.904 33.1158 47.62 32.0118 47.62C31.6838 47.62 31.4278 47.624 31.2438 47.632C31.0678 47.64 30.9438 47.648 30.8718 47.656V54.016C30.9438 54.024 31.0678 54.032 31.2438 54.04C31.4278 54.048 31.6838 54.052 32.0118 54.052ZM39.3065 49.036C39.4425 48.948 39.6465 48.856 39.9185 48.76C40.1985 48.664 40.5185 48.616 40.8785 48.616C41.3265 48.616 41.7225 48.696 42.0665 48.856C42.4185 49.016 42.7145 49.24 42.9545 49.528C43.1945 49.816 43.3745 50.16 43.4945 50.56C43.6225 50.96 43.6865 51.4 43.6865 51.88C43.6865 52.384 43.6105 52.84 43.4585 53.248C43.3145 53.648 43.1065 53.988 42.8345 54.268C42.5625 54.548 42.2345 54.764 41.8505 54.916C41.4665 55.068 41.0345 55.144 40.5545 55.144C40.0345 55.144 39.5745 55.108 39.1745 55.036C38.7745 54.964 38.4465 54.892 38.1905 54.82V45.88L39.3065 45.688V49.036ZM39.3065 54.028C39.4185 54.06 39.5745 54.092 39.7745 54.124C39.9825 54.148 40.2385 54.16 40.5425 54.16C41.1425 54.16 41.6225 53.964 41.9825 53.572C42.3425 53.172 42.5225 52.608 42.5225 51.88C42.5225 51.56 42.4905 51.26 42.4265 50.98C42.3625 50.7 42.2585 50.46 42.1145 50.26C41.9705 50.052 41.7825 49.892 41.5505 49.78C41.3265 49.66 41.0545 49.6 40.7345 49.6C40.4305 49.6 40.1505 49.652 39.8945 49.756C39.6385 49.86 39.4425 49.968 39.3065 50.08V54.028Z" fill="#D6D2CF"/>
<path d="M18.02 32.438C18.02 33.458 17.8387 34.3987 17.476 35.26C17.136 36.0987 16.6147 36.8353 15.912 37.47C15.2093 38.1047 14.3253 38.6033 13.26 38.966C12.2173 39.306 11.0047 39.476 9.622 39.476C8.03533 39.476 6.70933 39.2607 5.644 38.83C4.60133 38.3767 3.75133 37.8213 3.094 37.164C2.45933 36.5067 2.006 35.7927 1.734 35.022C1.462 34.2287 1.326 33.5033 1.326 32.846C1.326 32.166 1.41667 31.5427 1.598 30.976C1.77933 30.4093 2.02867 29.8993 2.346 29.446C2.66333 28.97 3.01467 28.5393 3.4 28.154C3.808 27.7687 4.23867 27.406 4.692 27.066C3.71733 26.2727 2.992 25.4907 2.516 24.72C2.06267 23.9493 1.836 22.9633 1.836 21.762C1.836 20.8553 2.01733 19.9827 2.38 19.144C2.76533 18.3053 3.298 17.58 3.978 16.968C4.658 16.3333 5.474 15.8347 6.426 15.472C7.40067 15.0867 8.47733 14.894 9.656 14.894C11.0387 14.894 12.2173 15.098 13.192 15.506C14.1893 15.8913 15.0053 16.39 15.64 17.002C16.2747 17.614 16.728 18.3053 17 19.076C17.2947 19.824 17.442 20.572 17.442 21.32C17.442 22.408 17.1473 23.428 16.558 24.38C15.9913 25.3093 15.2773 26.046 14.416 26.59C15.708 27.4287 16.626 28.3127 17.17 29.242C17.7367 30.1487 18.02 31.214 18.02 32.438ZM6.256 32.642C6.256 32.914 6.31267 33.22 6.426 33.56C6.562 33.8773 6.766 34.172 7.038 34.444C7.31 34.716 7.66133 34.9427 8.092 35.124C8.52267 35.3053 9.044 35.396 9.656 35.396C10.8347 35.396 11.696 35.1127 12.24 34.546C12.784 33.9793 13.056 33.3447 13.056 32.642C13.056 32.1207 12.9313 31.656 12.682 31.248C12.4553 30.84 12.138 30.4887 11.73 30.194C11.322 29.8767 10.8347 29.6047 10.268 29.378C9.724 29.1287 9.13467 28.902 8.5 28.698C7.86533 29.174 7.33267 29.7293 6.902 30.364C6.47133 30.9987 6.256 31.758 6.256 32.642ZM12.546 21.456C12.546 21.2067 12.4893 20.946 12.376 20.674C12.2853 20.3793 12.1153 20.1073 11.866 19.858C11.6393 19.6087 11.3447 19.4047 10.982 19.246C10.6193 19.0647 10.1773 18.974 9.656 18.974C9.15733 18.974 8.72667 19.0533 8.364 19.212C8.00133 19.3707 7.69533 19.586 7.446 19.858C7.21933 20.1073 7.04933 20.3793 6.936 20.674C6.82267 20.9687 6.766 21.252 6.766 21.524C6.766 22.2493 7.02667 22.9293 7.548 23.564C8.092 24.1987 9.01 24.7427 10.302 25.196C11.0273 24.7427 11.5827 24.2213 11.968 23.632C12.3533 23.0427 12.546 22.3173 12.546 21.456ZM25.9882 36.314C25.9882 37.334 25.6596 38.116 25.0022 38.66C24.3676 39.1813 23.6422 39.442 22.8262 39.442C22.0102 39.442 21.2736 39.1813 20.6162 38.66C19.9816 38.116 19.6642 37.334 19.6642 36.314C19.6642 35.294 19.9816 34.5233 20.6162 34.002C21.2736 33.458 22.0102 33.186 22.8262 33.186C23.6422 33.186 24.3676 33.458 25.0022 34.002C25.6596 34.5233 25.9882 35.294 25.9882 36.314ZM28.7114 20.334C29.3687 20.062 30.0487 19.756 30.7514 19.416C31.4767 19.0533 32.1794 18.668 32.8594 18.26C33.5394 17.8293 34.1854 17.3873 34.7974 16.934C35.4321 16.458 35.9987 15.9593 36.4974 15.438H40.0334V39H34.9674V22.034C34.2874 22.4873 33.5281 22.9067 32.6894 23.292C31.8507 23.6547 31.0347 23.972 30.2414 24.244L28.7114 20.334Z" fill="white"/>
</svg>
