<svg width="95" height="41" viewBox="0 0 95 41" fill="none" xmlns="http://www.w3.org/2000/svg">
<path d="M5.2351 0.225959C5.30863 0.087672 5.46008 0 5.62561 0C5.79113 0 5.94282 0.087672 6.01612 0.225959L7.41677 2.86855C7.48011 2.98808 7.60292 3.07101 7.7449 3.09021L10.8772 3.51389C11.0416 3.53603 11.1775 3.64313 11.2287 3.78978C11.2799 3.93643 11.2372 4.09776 11.1185 4.20532L8.85212 6.26245C8.74946 6.35554 8.70261 6.48976 8.72664 6.62127L9.26156 9.52597C9.28923 9.67827 9.22249 9.83192 9.08803 9.92275C8.95381 10.0131 8.7764 10.0251 8.62932 9.95371L5.82754 8.58214C5.70084 8.52 5.54915 8.52 5.42222 8.58214L2.62044 9.95348C2.47385 10.0251 2.29594 10.0134 2.16173 9.92275C2.02751 9.83214 1.96053 9.67827 1.98844 9.52597L2.52336 6.62127C2.54763 6.48976 2.50055 6.35554 2.39788 6.26245L0.131507 4.20532C0.012825 4.09754 -0.029891 3.93643 0.0213197 3.78978C0.0725303 3.64313 0.208687 3.53603 0.372998 3.51389L3.50583 3.09021C3.64757 3.07101 3.77037 2.98808 3.83372 2.86832L5.2351 0.225959Z" fill="#F2C94C"/>
<path d="M25.2351 0.225959C25.3086 0.087672 25.4601 0 25.6256 0C25.7911 0 25.9428 0.087672 26.0161 0.225959L27.4168 2.86855C27.4801 2.98808 27.6029 3.07101 27.7449 3.09021L30.8772 3.51389C31.0416 3.53603 31.1775 3.64313 31.2287 3.78978C31.2799 3.93643 31.2372 4.09776 31.1185 4.20532L28.8521 6.26245C28.7495 6.35554 28.7026 6.48976 28.7266 6.62127L29.2616 9.52597C29.2892 9.67827 29.2225 9.83192 29.088 9.92275C28.9538 10.0131 28.7764 10.0251 28.6293 9.95371L25.8275 8.58214C25.7008 8.52 25.5492 8.52 25.4222 8.58214L22.6204 9.95348C22.4738 10.0251 22.2959 10.0134 22.1617 9.92275C22.0275 9.83214 21.9605 9.67827 21.9884 9.52597L22.5234 6.62127C22.5476 6.48976 22.5005 6.35554 22.3979 6.26245L20.1315 4.20532C20.0128 4.09754 19.9701 3.93643 20.0213 3.78978C20.0725 3.64313 20.2087 3.53603 20.373 3.51389L23.5058 3.09021C23.6476 3.07101 23.7704 2.98808 23.8337 2.86832L25.2351 0.225959Z" fill="#F2C94C"/>
<path d="M47.1534 0.225959C47.2188 0.087672 47.3534 0 47.5005 0C47.6477 0 47.7825 0.087672 47.8477 0.225959L49.0927 2.86855C49.149 2.98808 49.2582 3.07101 49.3844 3.09021L52.1687 3.51389C52.3147 3.53603 52.4355 3.64313 52.481 3.78978C52.5266 3.93643 52.4886 4.09776 52.3831 4.20532L50.3686 6.26245C50.2773 6.35554 50.2357 6.48976 50.257 6.62127L50.7325 9.52597C50.7571 9.67827 50.6978 9.83192 50.5782 9.92275C50.4589 10.0131 50.3012 10.0251 50.1705 9.95371L47.68 8.58214C47.5674 8.52 47.4326 8.52 47.3198 8.58214L44.8293 9.95348C44.699 10.0251 44.5408 10.0134 44.4215 9.92275C44.3022 9.83214 44.2427 9.67827 44.2675 9.52597L44.743 6.62127C44.7646 6.48976 44.7227 6.35554 44.6314 6.26245L42.6169 4.20532C42.5114 4.09754 42.4734 3.93643 42.519 3.78978C42.5645 3.64313 42.6855 3.53603 42.8316 3.51389L45.6163 3.09021C45.7423 3.07101 45.8514 2.98808 45.9078 2.86832L47.1534 0.225959Z" fill="#F2C94C"/>
<path d="M67.7352 0.225959C67.8088 0.087672 67.9602 0 68.1257 0C68.2913 0 68.4429 0.087672 68.5162 0.225959L69.9169 2.86855C69.9802 2.98808 70.103 3.07101 70.245 3.09021L73.3774 3.51389C73.5417 3.53603 73.6776 3.64313 73.7288 3.78978C73.78 3.93643 73.7373 4.09776 73.6186 4.20532L71.3522 6.26245C71.2496 6.35554 71.2027 6.48976 71.2268 6.62127L71.7617 9.52597C71.7894 9.67827 71.7226 9.83192 71.5882 9.92275C71.4539 10.0131 71.2765 10.0251 71.1294 9.95371L68.3277 8.58214C68.201 8.52 68.0493 8.52 67.9223 8.58214L65.1206 9.95348C64.974 10.0251 64.7961 10.0134 64.6619 9.92275C64.5276 9.83214 64.4606 9.67827 64.4886 9.52597L65.0235 6.62127C65.0478 6.48976 65.0007 6.35554 64.898 6.26245L62.6316 4.20532C62.5129 4.09754 62.4702 3.93643 62.5214 3.78978C62.5727 3.64313 62.7088 3.53603 62.8731 3.51389L66.0059 3.09021C66.1477 3.07101 66.2705 2.98808 66.3338 2.86832L67.7352 0.225959Z" fill="#F2C94C"/>
<path d="M87.7356 0.225959C87.8091 0.087672 87.9606 0 88.1261 0C88.2916 0 88.4433 0.087672 88.5166 0.225959L89.9173 2.86855C89.9806 2.98808 90.1034 3.07101 90.2454 3.09021L93.3777 3.51389C93.542 3.53603 93.678 3.64313 93.7292 3.78978C93.7804 3.93643 93.7377 4.09776 93.619 4.20532L91.3526 6.26245C91.2499 6.35554 91.2031 6.48976 91.2271 6.62127L91.762 9.52597C91.7897 9.67827 91.723 9.83192 91.5885 9.92275C91.4543 10.0131 91.2769 10.0251 91.1298 9.95371L88.328 8.58214C88.2013 8.52 88.0496 8.52 87.9227 8.58214L85.1209 9.95348C84.9743 10.0251 84.7964 10.0134 84.6622 9.92275C84.528 9.83214 84.461 9.67827 84.4889 9.52597L85.0238 6.62127C85.0481 6.48976 85.001 6.35554 84.8984 6.26245L82.632 4.20532C82.5133 4.09754 82.4706 3.93643 82.5218 3.78978C82.573 3.64313 82.7092 3.53603 82.8735 3.51389L86.0063 3.09021C86.1481 3.07101 86.2709 2.98808 86.3342 2.86832L87.7356 0.225959Z" fill="#828A8E"/>
<path d="M1.06641 31V29.9541H3.52051V22.5439L1.34668 24.0957V22.9336L3.62305 21.3682H4.75781V29.9541H7.10254V31H1.06641ZM8.49707 31V30.1318C8.72949 29.5986 9.01204 29.1292 9.34473 28.7236C9.68197 28.3135 10.0352 27.9443 10.4043 27.6162C10.7734 27.2835 11.138 26.9759 11.498 26.6934C11.8626 26.4108 12.1908 26.1283 12.4824 25.8457C12.7741 25.5632 13.0088 25.2669 13.1865 24.957C13.3688 24.6471 13.46 24.2962 13.46 23.9043C13.46 23.3757 13.305 22.9655 12.9951 22.6738C12.6852 22.3822 12.2546 22.2363 11.7031 22.2363C11.179 22.2363 10.7461 22.3799 10.4043 22.667C10.0671 22.9495 9.86882 23.3483 9.80957 23.8633L8.55176 23.7471C8.6429 22.9769 8.96875 22.3639 9.5293 21.9082C10.0944 21.4525 10.819 21.2246 11.7031 21.2246C12.6738 21.2246 13.4189 21.4548 13.9385 21.915C14.4626 22.3708 14.7246 23.0202 14.7246 23.8633C14.7246 24.237 14.638 24.6084 14.4648 24.9775C14.2962 25.3467 14.0433 25.7158 13.7061 26.085C13.3688 26.4541 12.724 27.026 11.7715 27.8008C11.2474 28.2292 10.8304 28.6165 10.5205 28.9629C10.2106 29.3047 9.9873 29.6351 9.85059 29.9541H14.875V31H8.49707ZM20.1729 26.8438V29.7695H19.168V26.8438H16.2695V25.8457H19.168V22.9199H20.1729V25.8457H23.0713V26.8438H20.1729Z" fill="#CFCAC7"/>
<path d="M50.4541 22.4346V26.0166H55.8271V27.0967H50.4541V31H49.1484V21.3682H55.9912V22.4346H50.4541ZM58.7051 23.6035V28.293C58.7051 28.7806 58.7529 29.1589 58.8486 29.4277C58.9443 29.6966 59.097 29.8903 59.3066 30.0088C59.5163 30.1273 59.8239 30.1865 60.2295 30.1865C60.8219 30.1865 61.2891 29.9837 61.6309 29.5781C61.9727 29.1725 62.1436 28.6097 62.1436 27.8896V23.6035H63.374V29.4209C63.374 30.2822 63.3877 30.8086 63.415 31H62.2529C62.2484 30.9772 62.2438 30.9157 62.2393 30.8154C62.2347 30.7152 62.2279 30.6012 62.2188 30.4736C62.2142 30.3415 62.2074 30.0954 62.1982 29.7354H62.1777C61.8952 30.2458 61.5671 30.6081 61.1934 30.8223C60.8242 31.0319 60.3639 31.1367 59.8125 31.1367C59.0013 31.1367 58.4066 30.9362 58.0283 30.5352C57.6546 30.1296 57.4678 29.4619 57.4678 28.5322V23.6035H58.7051ZM65.2949 31V20.8555H66.5254V31H65.2949ZM68.4121 31V20.8555H69.6426V31H68.4121ZM82.1455 31V26.5361H76.9365V31H75.6309V21.3682H76.9365V25.4424H82.1455V21.3682H83.4512V31H82.1455ZM94.04 26.085C94.04 27.0785 93.8464 27.9489 93.459 28.6963C93.0716 29.4391 92.5225 30.0088 91.8115 30.4053C91.1006 30.8018 90.2803 31 89.3506 31H85.748V21.3682H88.9336C90.5651 21.3682 91.8229 21.7783 92.707 22.5986C93.5957 23.4144 94.04 24.5765 94.04 26.085ZM92.7275 26.085C92.7275 24.891 92.3994 23.9818 91.7432 23.3574C91.0915 22.7285 90.1458 22.4141 88.9062 22.4141H87.0537V29.9541H89.2002C89.9066 29.9541 90.5264 29.7992 91.0596 29.4893C91.5973 29.1794 92.0098 28.7327 92.2969 28.1494C92.584 27.5661 92.7275 26.8779 92.7275 26.085Z" fill="#CFCAC7"/>
</svg>
