<svg width="18" height="13" viewBox="0 0 18 13" fill="none" xmlns="http://www.w3.org/2000/svg">
  <g clip-path="url(#clip0_2_59)">
    <path d="M8.99993 9.00001C10.4911 9.00001 11.6999 7.79117 11.6999 6.30001C11.6999 4.80884 10.4911 3.60001 8.99993 3.60001C7.50876 3.60001 6.29993 4.80884 6.29993 6.30001C6.29993 7.79117 7.50876 9.00001 8.99993 9.00001Z" fill="white"/>
    <path d="M9 0C4.95 0 1.53 2.61 0 6.3C1.53 9.99 5.04 12.6 9 12.6C12.96 12.6 16.47 9.99 18 6.3C16.47 2.61 13.05 0 9 0ZM9 10.8C6.48 10.8 4.5 8.82 4.5 6.3C4.5 3.78 6.48 1.8 9 1.8C11.52 1.8 13.5 3.78 13.5 6.3C13.5 8.82 11.52 10.8 9 10.8Z" fill="white"/>
  </g>
  <defs>
    <clipPath id="clip0_2_59">
      <rect width="18" height="12.6" fill="white"/>
    </clipPath>
  </defs>
</svg>
