<svg width="12" height="10" viewBox="0 0 12 10" fill="none" xmlns="http://www.w3.org/2000/svg">
<path d="M5.73522 0.225959C5.80876 0.087672 5.9602 0 6.12573 0C6.29125 0 6.44294 0.087672 6.51624 0.225959L7.91689 2.86855C7.98023 2.98808 8.10304 3.07101 8.24502 3.09021L11.3774 3.51389C11.5417 3.53603 11.6776 3.64313 11.7288 3.78978C11.78 3.93643 11.7373 4.09776 11.6186 4.20532L9.35224 6.26245C9.24958 6.35554 9.20274 6.48976 9.22676 6.62127L9.76168 9.52597C9.78935 9.67827 9.72261 9.83192 9.58815 9.92275C9.45393 10.0131 9.27652 10.0251 9.12944 9.95371L6.32766 8.58214C6.20097 8.52 6.04928 8.52 5.92234 8.58214L3.12056 9.95348C2.97397 10.0251 2.79607 10.0134 2.66185 9.92275C2.52764 9.83214 2.46065 9.67827 2.48856 9.52597L3.02348 6.62127C3.04775 6.48976 3.00067 6.35554 2.898 6.26245L0.63163 4.20532C0.512947 4.09754 0.470231 3.93643 0.521442 3.78978C0.572652 3.64313 0.708809 3.53603 0.87312 3.51389L4.00595 3.09021C4.14769 3.07101 4.2705 2.98808 4.33384 2.86832L5.73522 0.225959Z" fill="#F2C94C"/>
</svg>
