<svg width="12" height="10" viewBox="0 0 12 10" fill="none" xmlns="http://www.w3.org/2000/svg">
<path d="M5.73558 0.225959C5.80912 0.087672 5.96057 0 6.1261 0C6.29162 0 6.44331 0.087672 6.51661 0.225959L7.91725 2.86855C7.9806 2.98808 8.10341 3.07101 8.24539 3.09021L11.3777 3.51389C11.542 3.53603 11.678 3.64313 11.7292 3.78978C11.7804 3.93643 11.7377 4.09776 11.619 4.20532L9.35261 6.26245C9.24994 6.35554 9.2031 6.48976 9.22713 6.62127L9.76205 9.52597C9.78972 9.67827 9.72297 9.83192 9.58852 9.92275C9.4543 10.0131 9.27688 10.0251 9.1298 9.95371L6.32802 8.58214C6.20133 8.52 6.04964 8.52 5.92271 8.58214L3.12093 9.95348C2.97434 10.0251 2.79643 10.0134 2.66222 9.92275C2.528 9.83214 2.46102 9.67827 2.48893 9.52597L3.02385 6.62127C3.04812 6.48976 3.00103 6.35554 2.89837 6.26245L0.631996 4.20532C0.513313 4.09754 0.470597 3.93643 0.521808 3.78978C0.573019 3.64313 0.709176 3.53603 0.873487 3.51389L4.00631 3.09021C4.14805 3.07101 4.27086 2.98808 4.33421 2.86832L5.73558 0.225959Z" fill="#828A8E"/>
</svg>
