<svg width="119" height="20" viewBox="0 0 119 20" fill="none" xmlns="http://www.w3.org/2000/svg">
<path d="M4.25593 10.936C4.60793 10.552 4.96793 10.152 5.33593 9.73598C5.71993 9.31998 6.08793 8.91198 6.43993 8.51198C6.79193 8.09598 7.11993 7.70398 7.42393 7.33598C7.74393 6.96798 8.01593 6.64798 8.23993 6.37598H12.4879C11.6399 7.35198 10.8079 8.28798 9.99193 9.18398C9.19193 10.064 8.31193 10.976 7.35193 11.92C7.83193 12.352 8.32793 12.872 8.83993 13.48C9.35193 14.072 9.84793 14.688 10.3279 15.328C10.8079 15.968 11.2479 16.608 11.6479 17.248C12.0479 17.888 12.3839 18.472 12.6559 19H8.55193C8.29593 18.584 7.99993 18.128 7.66393 17.632C7.34393 17.12 6.99993 16.616 6.63193 16.12C6.26393 15.608 5.87193 15.12 5.45593 14.656C5.05593 14.192 4.65593 13.8 4.25593 13.48V19H0.679932V0.951976L4.25593 0.375977V10.936Z" fill="#8FD4C0"/>
<path d="M18.6344 19H15.0584V6.37598H18.6344V19ZM18.9704 2.72798C18.9704 3.38398 18.7544 3.90398 18.3224 4.28798C17.9064 4.65598 17.4104 4.83998 16.8344 4.83998C16.2584 4.83998 15.7544 4.65598 15.3224 4.28798C14.9064 3.90398 14.6984 3.38398 14.6984 2.72798C14.6984 2.07198 14.9064 1.55998 15.3224 1.19198C15.7544 0.807976 16.2584 0.615976 16.8344 0.615976C17.4104 0.615976 17.9064 0.807976 18.3224 1.19198C18.7544 1.55998 18.9704 2.07198 18.9704 2.72798Z" fill="#8FD4C0"/>
<path d="M22.4759 6.80798C23.0839 6.63198 23.8679 6.47198 24.8279 6.32798C25.7879 6.16798 26.7959 6.08798 27.8519 6.08798C28.9239 6.08798 29.8119 6.23198 30.5159 6.51998C31.2359 6.79198 31.8039 7.18398 32.2199 7.69598C32.6359 8.20798 32.9319 8.81598 33.1079 9.51998C33.2839 10.224 33.3719 11.008 33.3719 11.872V19H29.7959V12.304C29.7959 11.152 29.6439 10.336 29.3399 9.85598C29.0359 9.37598 28.4679 9.13598 27.6359 9.13598C27.3799 9.13598 27.1079 9.15198 26.8199 9.18398C26.5319 9.19998 26.2759 9.22398 26.0519 9.25598V19H22.4759V6.80798Z" fill="#8FD4C0"/>
<path d="M48.8967 12.664C48.8967 13.656 48.7527 14.568 48.4647 15.4C48.1767 16.216 47.7607 16.92 47.2167 17.512C46.6727 18.088 46.0167 18.536 45.2487 18.856C44.4967 19.176 43.6487 19.336 42.7047 19.336C41.7767 19.336 40.9287 19.176 40.1607 18.856C39.4087 18.536 38.7607 18.088 38.2167 17.512C37.6727 16.92 37.2487 16.216 36.9447 15.4C36.6407 14.568 36.4887 13.656 36.4887 12.664C36.4887 11.672 36.6407 10.768 36.9447 9.95198C37.2647 9.13598 37.6967 8.43998 38.2407 7.86398C38.8007 7.28798 39.4567 6.83998 40.2087 6.51998C40.9767 6.19998 41.8087 6.03998 42.7047 6.03998C43.6167 6.03998 44.4487 6.19998 45.2007 6.51998C45.9687 6.83998 46.6247 7.28798 47.1687 7.86398C47.7127 8.43998 48.1367 9.13598 48.4407 9.95198C48.7447 10.768 48.8967 11.672 48.8967 12.664ZM45.2487 12.664C45.2487 11.56 45.0247 10.696 44.5767 10.072C44.1447 9.43198 43.5207 9.11198 42.7047 9.11198C41.8887 9.11198 41.2567 9.43198 40.8087 10.072C40.3607 10.696 40.1367 11.56 40.1367 12.664C40.1367 13.768 40.3607 14.648 40.8087 15.304C41.2567 15.944 41.8887 16.264 42.7047 16.264C43.5207 16.264 44.1447 15.944 44.5767 15.304C45.0247 14.648 45.2487 13.768 45.2487 12.664Z" fill="#8FD4C0"/>
<path d="M55.7708 16.432C56.4268 16.432 56.8908 16.368 57.1628 16.24C57.4348 16.112 57.5708 15.864 57.5708 15.496C57.5708 15.208 57.3948 14.96 57.0428 14.752C56.6908 14.528 56.1548 14.28 55.4348 14.008C54.8748 13.8 54.3628 13.584 53.8988 13.36C53.4508 13.136 53.0668 12.872 52.7468 12.568C52.4268 12.248 52.1788 11.872 52.0028 11.44C51.8268 11.008 51.7388 10.488 51.7388 9.87998C51.7388 8.69598 52.1788 7.75998 53.0588 7.07198C53.9388 6.38398 55.1468 6.03998 56.6828 6.03998C57.4508 6.03998 58.1868 6.11198 58.8908 6.25598C59.5948 6.38398 60.1548 6.52798 60.5708 6.68798L59.9468 9.47198C59.5308 9.32798 59.0748 9.19998 58.5788 9.08798C58.0988 8.97598 57.5548 8.91998 56.9468 8.91998C55.8268 8.91998 55.2668 9.23198 55.2668 9.85598C55.2668 9.99998 55.2908 10.128 55.3388 10.24C55.3868 10.352 55.4828 10.464 55.6268 10.576C55.7708 10.672 55.9628 10.784 56.2028 10.912C56.4588 11.024 56.7788 11.152 57.1628 11.296C57.9468 11.584 58.5948 11.872 59.1068 12.16C59.6188 12.432 60.0188 12.736 60.3068 13.072C60.6108 13.392 60.8188 13.752 60.9308 14.152C61.0588 14.552 61.1228 15.016 61.1228 15.544C61.1228 16.792 60.6508 17.736 59.7068 18.376C58.7788 19.016 57.4588 19.336 55.7468 19.336C54.6268 19.336 53.6908 19.24 52.9388 19.048C52.2028 18.856 51.6908 18.696 51.4028 18.568L52.0028 15.664C52.6108 15.904 53.2348 16.096 53.8748 16.24C54.5148 16.368 55.1468 16.432 55.7708 16.432Z" fill="#8FD4C0"/>
<path d="M64.1552 3.23198L67.7312 2.65598V6.37598H72.0272V9.35198H67.7312V13.792C67.7312 14.544 67.8592 15.144 68.1152 15.592C68.3872 16.04 68.9232 16.264 69.7232 16.264C70.1072 16.264 70.4992 16.232 70.8992 16.168C71.3152 16.088 71.6912 15.984 72.0272 15.856L72.5312 18.64C72.0993 18.816 71.6192 18.968 71.0912 19.096C70.5632 19.224 69.9152 19.288 69.1472 19.288C68.1712 19.288 67.3632 19.16 66.7232 18.904C66.0832 18.632 65.5713 18.264 65.1872 17.8C64.8032 17.32 64.5312 16.744 64.3712 16.072C64.2272 15.4 64.1552 14.656 64.1552 13.84V3.23198Z" fill="#8FD4C0"/>
<path d="M86.7586 12.664C86.7586 13.656 86.6146 14.568 86.3266 15.4C86.0386 16.216 85.6226 16.92 85.0786 17.512C84.5346 18.088 83.8786 18.536 83.1106 18.856C82.3586 19.176 81.5106 19.336 80.5666 19.336C79.6385 19.336 78.7906 19.176 78.0226 18.856C77.2706 18.536 76.6226 18.088 76.0786 17.512C75.5346 16.92 75.1106 16.216 74.8066 15.4C74.5026 14.568 74.3506 13.656 74.3506 12.664C74.3506 11.672 74.5026 10.768 74.8066 9.95198C75.1266 9.13598 75.5586 8.43998 76.1026 7.86398C76.6626 7.28798 77.3186 6.83998 78.0706 6.51998C78.8386 6.19998 79.6705 6.03998 80.5666 6.03998C81.4786 6.03998 82.3106 6.19998 83.0626 6.51998C83.8306 6.83998 84.4866 7.28798 85.0306 7.86398C85.5746 8.43998 85.9986 9.13598 86.3026 9.95198C86.6066 10.768 86.7586 11.672 86.7586 12.664ZM83.1106 12.664C83.1106 11.56 82.8866 10.696 82.4386 10.072C82.0066 9.43198 81.3826 9.11198 80.5666 9.11198C79.7505 9.11198 79.1186 9.43198 78.6706 10.072C78.2226 10.696 77.9986 11.56 77.9986 12.664C77.9986 13.768 78.2226 14.648 78.6706 15.304C79.1186 15.944 79.7505 16.264 80.5666 16.264C81.3826 16.264 82.0066 15.944 82.4386 15.304C82.8866 14.648 83.1106 13.768 83.1106 12.664Z" fill="#8FD4C0"/>
<path d="M97.6167 9.54398C97.2967 9.46398 96.9207 9.38398 96.4887 9.30398C96.0567 9.20798 95.5927 9.15998 95.0967 9.15998C94.8727 9.15998 94.6007 9.18398 94.2807 9.23198C93.9767 9.26398 93.7447 9.30398 93.5847 9.35198V19H90.0087V7.04798C90.6487 6.82398 91.4007 6.61598 92.2647 6.42398C93.1447 6.21598 94.1207 6.11198 95.1927 6.11198C95.3847 6.11198 95.6167 6.12798 95.8887 6.15998C96.1607 6.17598 96.4327 6.20798 96.7047 6.25598C96.9767 6.28798 97.2487 6.33598 97.5207 6.39998C97.7927 6.44798 98.0247 6.51198 98.2167 6.59198L97.6167 9.54398Z" fill="#8FD4C0"/>
<path d="M107.55 12.304C107.55 11.152 107.398 10.336 107.094 9.85598C106.806 9.37598 106.302 9.13598 105.582 9.13598C105.358 9.13598 105.126 9.15198 104.886 9.18398C104.646 9.19998 104.414 9.22398 104.19 9.25598V19H100.614V6.80798C100.918 6.72798 101.27 6.64798 101.67 6.56798C102.086 6.47198 102.518 6.39198 102.966 6.32798C103.43 6.24798 103.902 6.19198 104.382 6.15998C104.862 6.11198 105.334 6.08798 105.798 6.08798C106.71 6.08798 107.446 6.20798 108.006 6.44798C108.582 6.67198 109.054 6.94398 109.422 7.26398C109.934 6.89598 110.518 6.60798 111.174 6.39998C111.846 6.19198 112.462 6.08798 113.022 6.08798C114.03 6.08798 114.854 6.23198 115.494 6.51998C116.15 6.79198 116.67 7.18398 117.054 7.69598C117.438 8.20798 117.702 8.81598 117.846 9.51998C117.99 10.224 118.062 11.008 118.062 11.872V19H114.486V12.304C114.486 11.152 114.334 10.336 114.03 9.85598C113.742 9.37598 113.238 9.13598 112.518 9.13598C112.326 9.13598 112.054 9.18398 111.702 9.27998C111.366 9.37598 111.086 9.49598 110.862 9.63998C110.974 10.008 111.046 10.4 111.078 10.816C111.11 11.216 111.126 11.648 111.126 12.112V19H107.55V12.304Z" fill="#8FD4C0"/>
</svg>
