<svg width="22" height="20" viewBox="0 0 22 20" fill="none" xmlns="http://www.w3.org/2000/svg">
<path d="M11.3654 11.2241C14.4689 11.2241 16.9861 8.70689 16.9861 5.60346C16.9861 2.50004 14.4689 0 11.3654 0C8.262 0 5.74475 2.51725 5.74475 5.60346C5.74475 8.68967 8.26197 11.2241 11.3654 11.2241ZM11.3654 1.46552C13.6413 1.46552 15.5034 3.32758 15.5034 5.60346C15.5034 7.87934 13.6413 9.74136 11.3654 9.74136C9.08958 9.74136 7.22749 7.87931 7.22749 5.60342C7.22749 3.32754 9.08955 1.46552 11.3654 1.46552Z" fill="#828A8E"/>
<path d="M1.64127 20H21.1585C21.5723 20 21.8999 19.6724 21.8999 19.2586C21.8999 15.3793 18.7447 12.2069 14.8482 12.2069H7.95163C4.07232 12.2069 0.899902 15.3621 0.899902 19.2586C0.899902 19.6724 1.22748 20 1.64127 20ZM7.95163 13.6897H14.8482C17.6757 13.6897 20.0033 15.7931 20.3654 18.5172H2.43438C2.79643 15.8104 5.12405 13.6897 7.95163 13.6897Z" fill="#828A8E"/>
</svg>
